<svg width="225" height="65" viewBox="0 0 225 65" fill="none" xmlns="http://www.w3.org/2000/svg">
<path d="M41.6875 12.125C38.4687 9.46873 34.0625 8.15623 28.4375 8.15623H14.4375V10.125H28.1875C32.9687 10.125 37.2813 11.0937 39.9375 13.4062C42.5938 15.7187 44.5625 19.0937 44.5625 23.2812C44.5625 27.3437 42.8125 30.3125 40.0938 32.5937C37.375 34.875 32.4375 35.875 27.5313 35.875H11.75V37.8437H27.6563C33.5625 37.8437 38.1875 36.5625 41.5312 34C44.8437 31.4375 46.5312 27.8125 46.5312 23.1562C46.5312 18.4062 44.9062 14.75 41.6875 12.125Z" fill="#1C1E1D"/>
<path d="M40.5 14.9375C38.5 13.4062 36.2188 12.1875 29.7188 12.1875H18.9062V14.0937C18.9062 14.0937 23.75 14.0312 29.4688 14.0937C35 14.1562 37.0312 14.7812 38.9062 16.1562C41.2812 17.9062 42.7812 20.0937 42.7812 23.125C42.7812 26.0625 41.2812 28.125 38.875 29.9062C36.4375 31.7187 32.6875 31.7187 31.1562 31.7812C30.5937 31.7812 23.125 31.7812 23.125 31.7812V33.6875C23.125 33.6875 26.8125 33.75 29.125 33.6875C34.375 33.5625 37.5 33.25 40.4063 31.0937C43.125 29.0625 44.5625 26.4062 44.5625 23.0312C44.5625 18.5937 42.3125 16.375 40.5 14.9375Z" fill="#1C1E1D"/>
<path d="M39.5312 17.4687C38.0312 16.5312 36.7188 15.9062 30.5 15.9062H22.7187V17.1562H30.2812C35.7812 17.1562 37.8437 18.125 38.5 18.5312C39.75 19.2812 41.375 20.5312 41.375 23.0312C41.375 24.625 40.4375 26.6562 39.0312 27.4375C37.75 28.1562 35.4062 28.8125 31.3125 28.8125H5.9375V30.0625H31.375C36.3437 30.0625 38.0313 29.5 39.7813 28.5312C41.5313 27.5625 42.7187 25.5625 42.7187 23.0312C42.7187 20.1562 41.125 18.4687 39.5312 17.4687Z" fill="#1C1E1D"/>
<path d="M44.4688 31.3125C41.25 28.6563 36.8437 27.3438 31.2187 27.3438H21.8438V29.3125H30.9375C35.7188 29.3125 40.0313 30.3125 42.6875 32.5937C45.3438 34.875 47.3438 38.2812 47.3438 42.4687C47.3438 46.5312 45.625 49.5 42.875 51.7813C40.125 54.0625 35.2187 55.0625 30.3125 55.0625H14.5312V57.0312H30.4375C36.3437 57.0312 40.9688 55.75 44.3125 53.1875C47.6563 50.625 49.3125 47 49.3125 42.3438C49.2813 37.625 47.6875 33.9688 44.4688 31.3125Z" fill="#1C1E1D"/>
<path d="M43.2812 34.125C41.2812 32.625 39 31.375 32.5 31.375H17.8125V33.2813C17.8125 33.2813 26.5312 33.2188 32.25 33.2813C37.7812 33.3438 39.8125 33.9688 41.6875 35.3438C44.0625 37.0938 45.5625 39.2813 45.5625 42.3125C45.5625 45.25 44.0625 47.3125 41.6563 49.0938C39.2188 50.9063 35.4688 50.9063 33.9375 50.9688C33.375 50.9688 25.9062 50.9688 25.9062 50.9688V52.875C25.9062 52.875 29.625 52.9375 31.9063 52.875C37.1563 52.75 40.2812 52.4375 43.1875 50.2813C45.9062 48.25 47.3438 45.5938 47.3438 42.2188C47.3438 37.8125 45.125 35.5625 43.2812 34.125Z" fill="#1C1E1D"/>
<path d="M20.9375 40.625H34.7188V39.5625H20.9375V40.625Z" fill="#1C1E1D"/>
<path d="M26.625 44.3437H34.625V43.4375H26.625V44.3437Z" fill="#1C1E1D"/>
<path d="M14.5312 40.625H18.5938V39.5625H14.5312V40.625Z" fill="#1C1E1D"/>
<path d="M11.9688 44.4062H24.375V43.3438H11.9688V44.4062Z" fill="#1C1E1D"/>
<path d="M15.0312 17.0625H19.875V16.1875H15.0312V17.0625Z" fill="#1C1E1D"/>
<path d="M11.6875 24.1875H22.7187V23.1875H11.6875V24.1875Z" fill="#1C1E1D"/>
<path d="M11.9688 52.75H23.625V51.5H11.9688V52.75Z" fill="#1C1E1D"/>
<path d="M9.09375 56.9062H12V55.0625H9.09375V56.9062Z" fill="#1C1E1D"/>
<path d="M16.3438 21.0625H34.6562V20.0625H16.3438V21.0625Z" fill="#1C1E1D"/>
<path d="M25.5 24.1875H34.3125V23.1875H25.5V24.1875Z" fill="#1C1E1D"/>
<path d="M42.3125 36.8437C40.8125 35.9375 39.5 35.3125 33.2812 35.3125H23.4062V36.5312H33.0937C38.5937 36.5312 40.6875 37.4688 41.3125 37.8438C42.5312 38.5625 44.1875 39.75 44.1875 42.1875C44.1875 43.75 43.25 45.6875 41.8437 46.4375C40.5625 47.125 38.2187 47.75 34.125 47.75H8.71875V48.9688H34.1563C39.125 48.9688 40.8125 48.4375 42.5625 47.5C44.3125 46.5625 45.4687 44.6563 45.4687 42.1875C45.5 39.4688 43.9062 37.8437 42.3125 36.8437Z" fill="#1C1E1D"/>
<path d="M68.375 34.125V45.2812H74.4687C77.0937 45.2812 79.1563 44.7813 80.5938 43.7813C82 42.875 82.8125 41.3125 82.7812 39.625C82.7812 35.9687 79.6875 34.125 73.5312 34.125H68.375ZM68.375 20.8438V30.8438H72.9688C75.4375 30.8438 77.3438 30.375 78.75 29.4063C80.125 28.5313 80.9375 26.9688 80.875 25.3438C80.875 22.3438 78.4375 20.8125 73.5312 20.8125L68.375 20.8438ZM63.875 48.5625V17.5625H74.7812C78.0937 17.5625 80.7188 18.2188 82.6563 19.5313C84.5938 20.8438 85.5625 22.5625 85.5625 24.6562C85.5937 26.3437 84.9688 28 83.8125 29.25C82.625 30.5625 81.0313 31.4688 78.9688 32.0313V32.125C81.5625 32.375 83.625 33.1562 85.1563 34.5C86.6875 35.7812 87.5313 37.6875 87.4688 39.6875C87.4688 42.3438 86.2813 44.4688 83.9375 46.125C81.5938 47.7813 78.625 48.5938 75.0313 48.5938H63.875V48.5625Z" fill="#1C1E1D"/>
<path d="M92.4687 48.5625H96.8437V26.4375H92.4687V48.5625ZM94.6875 20.7813C93.9687 20.8125 93.25 20.5625 92.6875 20.125C92.1563 19.75 91.8437 19.125 91.875 18.5C91.875 17.8438 92.1875 17.2188 92.6875 16.8438C93.25 16.4063 93.9687 16.1563 94.6875 16.1875C95.4375 16.1563 96.1562 16.4063 96.7187 16.8438C97.625 17.5 97.8125 18.75 97.1875 19.6563C97.0625 19.8438 96.9062 20 96.7187 20.125C96.1562 20.5938 95.4375 20.8125 94.6875 20.7813Z" fill="#1C1E1D"/>
<path d="M116.187 48.3438C115.156 48.8125 113.781 49.0312 112.094 49.0312C107.312 49.0312 104.906 46.875 104.906 42.5313V29.4375H100.219V26.4062H104.906V21L109.281 19.8438V26.4062H116.156V29.4375H109.281V41.9063C109.281 43.375 109.594 44.4375 110.219 45.0937C110.844 45.75 111.875 46.0312 113.312 46.0312C114.312 46.0625 115.312 45.8125 116.156 45.2812L116.187 48.3438Z" fill="#1C1E1D"/>
<path d="M155.969 48.5625H151.875V29.4375C151.906 27.5937 152 25.7187 152.219 23.875H152.125C151.875 24.8125 151.5 25.75 151.063 26.625L139.031 48.5312H137L125 26.7812C124.531 25.8437 124.187 24.875 123.937 23.8437H123.844C124 25.6875 124.062 27.5625 124.031 29.4375V48.5312H120.062V20.0312H125.531L136.344 39.9062C136.969 41 137.531 42.1562 137.969 43.3437H138.125C138.844 41.7812 139.406 40.625 139.812 39.8437L150.844 20.0312H156V48.5625" fill="#1C1E1D"/>
<path d="M178.219 37.3438L171.625 38.0938C169.594 38.3125 168.062 38.7188 167.031 39.3125C166 39.9063 165.469 40.9375 165.469 42.4063C165.469 43.4688 166 44.4688 166.906 45.0625C167.844 45.75 169.125 46.0938 170.719 46.0938C172.906 46.0938 174.687 45.4688 176.094 44.25C177.469 43.0938 178.25 41.375 178.219 39.5625V37.3438ZM182.594 48.5625H178.219V45.0938H178.125C176.219 47.75 173.406 49.0625 169.719 49.0625C167 49.0625 164.875 48.4688 163.312 47.3125C161.812 46.25 160.969 44.5 161 42.6563C161 38.5313 164 36.125 170.031 35.4375L178.219 34.5C178.219 30.75 176.344 28.875 172.594 28.875C169.406 28.8438 166.312 29.7813 163.687 31.5938V27.9688C166.375 26.5938 169.469 25.9063 172.969 25.9063C179.406 25.9063 182.594 28.6563 182.594 34.1563V48.5625Z" fill="#1C1E1D"/>
<path d="M202.906 30C202.125 29.5313 201.031 29.2813 199.594 29.2813C197.781 29.25 196.063 30.0313 194.906 31.4375C193.656 32.875 193.031 34.8125 193.031 37.2812V48.5625H188.656V26.4375H193.031V31H193.125C193.687 29.5313 194.688 28.25 196 27.3438C197.25 26.4688 198.75 26.0313 200.312 26.0313C201.187 26 202.094 26.0938 202.938 26.3438L202.906 30Z" fill="#1C1E1D"/>
<path d="M218.156 48.3438C217.125 48.8125 215.75 49.0312 214.062 49.0312C209.281 49.0312 206.875 46.875 206.875 42.5313V29.4375H202.188V26.4062H206.875V21L211.25 19.8438V26.4062H218.125V29.4375H211.25V41.9063C211.25 43.375 211.562 44.4375 212.188 45.0937C212.812 45.75 213.844 46.0312 215.281 46.0312C216.281 46.0625 217.281 45.8125 218.125 45.2812L218.156 48.3438Z" fill="#1C1E1D"/>
</svg>
