<svg width="244" height="69" viewBox="0 0 244 69" fill="none" xmlns="http://www.w3.org/2000/svg">
<path d="M26.7273 33.5715L26.1365 32.9769C25.6892 32.5302 24.9208 32.8465 24.9208 33.4799V41.9727C24.9208 42.3649 25.2426 42.684 25.6358 42.684H34.1314C34.7648 42.684 35.0836 41.9169 34.6333 41.4709C34.3555 41.1931 34.3555 40.7434 34.6333 40.4663L43.6692 31.4034C43.9475 31.1272 43.9475 30.6777 43.6692 30.3987L42.846 29.5786C42.3986 29.1318 42.7174 28.3645 43.3491 28.3645H51.8395C52.2321 28.3645 52.5533 28.6833 52.5533 29.0759V37.5679C52.5533 38.2013 51.7835 38.5184 51.3352 38.071L50.7629 37.499C50.4833 37.2135 50.0337 37.2135 49.7601 37.499L34.5256 52.7248C34.249 53.002 33.8 53.002 33.5198 52.7248L14.8815 34.088C14.6013 33.8078 14.6013 33.3575 14.8815 33.0792L40.6833 7.28071C40.9605 7.00299 40.9605 6.54987 40.6833 6.27337L34.6162 0.207376C34.3385 -0.0691255 33.8887 -0.0691255 33.6098 0.207376L0.207394 33.6081C-0.0691314 33.8858 -0.0691314 34.3389 0.207394 34.6154L33.6063 68.0113C33.8841 68.2873 34.3375 68.2873 34.614 68.0113L68.0113 34.6154C68.2873 34.3377 68.2873 33.887 68.0113 33.6103L48.3623 13.9628C48.0875 13.6863 47.6355 13.6863 47.3571 13.9628L27.7384 33.5718C27.4582 33.8519 27.0075 33.8519 26.7273 33.5718V33.5715Z" fill="#DE5959"/>
<path d="M194.599 43.7016C193.607 43.7016 192.752 44.0566 192.035 44.7709C191.327 45.4857 190.966 46.3295 190.966 47.3068C190.966 48.7963 191.722 49.9553 193.222 50.7831C194.868 51.2325 196.192 50.9398 197.187 49.921C197.909 49.2018 198.261 48.3395 198.261 47.3346C198.261 46.3203 197.909 45.4722 197.187 44.7711C196.473 44.0637 195.615 43.7113 194.596 43.7113V43.7018H194.599V43.7016ZM136.169 16.0626H133.459C132.289 16.0626 131.335 17.0054 131.335 18.1788V19.6909C128.455 16.6919 125.188 15.1911 121.539 15.1911C117.33 15.1911 113.816 16.7585 111.012 19.8845C108.202 23.0102 106.805 26.9199 106.805 31.6086C106.805 36.3779 108.204 40.3684 111.006 43.5586C113.839 46.6862 117.411 48.247 121.738 48.247C125.16 48.247 128.361 46.85 131.338 44.063V47.0528C131.338 48.505 132.518 49.6852 133.967 49.6852H138.593V18.4856C138.593 17.1508 137.507 16.0626 136.169 16.0626H136.169ZM129.319 39.0245C127.667 40.8667 125.509 41.7863 122.828 41.7863C120.321 41.7863 118.242 40.8388 116.596 38.9301C114.991 37.0512 114.188 34.6033 114.188 31.6043C114.188 28.8012 115.015 26.4407 116.66 24.537C118.329 22.651 120.407 21.7153 122.892 21.7153C125.526 21.7153 127.664 22.6467 129.313 24.5186C130.964 26.4226 131.791 28.8383 131.791 31.7707C131.791 34.7048 130.964 37.1231 129.313 39.0292H129.32V39.0245H129.319ZM106.8 21.3439V18.2526C106.8 17.0401 105.823 16.0673 104.615 16.0673H101.758C100.554 16.0673 99.5746 17.0356 99.5746 18.2479V19.5941C96.9615 16.6619 93.6852 15.1913 89.7455 15.1913C85.2488 15.1913 81.6254 16.8902 78.8868 20.2673C76.3374 23.453 75.0637 27.3304 75.0637 31.8946C75.0637 36.5812 76.4363 40.4953 79.1797 43.6187C81.8995 46.71 85.3885 48.243 89.6508 48.243C93.3941 48.243 96.7045 46.7818 99.5744 43.847V48.2153C99.5744 54.7067 96.9306 57.9524 91.6431 57.9524C88.7723 57.9524 86.5917 56.9751 85.0932 55.0249C84.7108 54.5315 84.3936 53.9183 84.1412 53.1785C83.7871 52.1434 82.8028 51.4565 81.7146 51.4565H78.9765C77.5956 51.4565 76.5688 52.7704 76.9176 54.1074C77.6669 56.9565 79.1134 59.271 81.2664 61.0597C83.9649 63.3093 87.4041 64.4345 91.5765 64.4345C96.5222 64.4345 100.41 62.807 103.238 59.5568C104.737 57.8648 105.74 55.8409 106.255 53.4849C106.426 52.6365 106.561 51.6385 106.656 50.5112C106.75 49.3909 106.797 48.0907 106.797 46.6109V42.0646C104.775 39.151 103.757 35.6677 103.757 31.6086C103.757 27.6184 104.772 24.2089 106.797 21.3437H106.8L106.8 21.3439ZM97.6461 38.7778C96.0409 40.7857 93.8598 41.7861 91.0938 41.7861C88.3311 41.7861 86.1689 40.7947 84.6025 38.7963C83.1711 36.9799 82.4539 34.6423 82.4539 31.7979C82.4539 28.9025 83.1708 26.5467 84.6025 24.7306C86.1911 22.6993 88.3509 21.6832 91.0938 21.6832C93.662 21.6832 95.7723 22.6141 97.4192 24.4744C99.0475 26.2934 99.8647 28.7233 99.8647 31.7684C99.8647 34.6151 99.1235 36.9478 97.6458 38.7736V38.7783L97.6461 38.7778ZM166.879 16.0857V16.0626H151.89V6.88333C151.89 5.70308 150.936 4.74873 149.754 4.74873H146.827C145.635 4.74873 144.667 5.71701 144.667 6.91095V16.0626H141.58V22.8006H144.663V49.6812H148.784C150.503 49.6812 151.886 48.298 151.886 46.5783V22.8053H159.297C159.882 21.6874 160.591 20.6568 161.434 19.714C162.969 18.0357 164.786 16.8279 166.874 16.086H166.879L166.879 16.0857ZM203.757 4.74873C202.475 4.74873 201.373 5.2121 200.451 6.1367C199.533 7.05612 199.068 8.15115 199.068 9.41212C199.068 10.7425 199.529 11.8581 200.451 12.7872C201.373 13.7068 202.489 14.1657 203.793 14.1657C205.1 14.1657 206.202 13.707 207.094 12.7824C208.016 11.8536 208.482 10.7517 208.482 9.44234C208.482 8.13793 208.021 7.03133 207.097 6.13694C206.17 5.20785 205.057 4.74472 203.752 4.74472L203.757 4.74897V4.74873ZM205.221 19.608H202.599C201.255 19.608 200.16 20.6915 200.16 22.0469V44.9881C200.714 45.6382 200.979 46.4058 200.979 47.291C200.979 48.1762 200.718 48.9509 200.16 49.6033V50.8945H204.812C206.237 50.8945 207.39 49.7372 207.39 48.3121V21.766C207.39 20.5716 206.417 19.6038 205.218 19.6038L205.22 19.6085L205.221 19.608ZM239.187 24.034C235.932 20.8482 231.97 19.253 227.301 19.253C222.654 19.253 218.712 20.8346 215.481 24.0111C212.249 27.1737 210.63 31.0189 210.63 35.5369C210.63 40.3294 212.212 44.3196 215.384 47.4892C218.556 50.7005 222.488 52.3047 227.172 52.3047C231.902 52.3047 235.895 50.7326 239.152 47.5837C242.377 44.4072 244 40.4861 244 35.7954C244 31.1457 242.396 27.2268 239.187 24.0342V24.034ZM234.074 43.1162C232.387 44.9397 230.127 45.8409 227.297 45.8409C224.489 45.8409 222.235 44.9258 220.52 43.0791C218.851 41.263 218.012 38.7826 218.012 35.6613C218.012 32.7522 218.874 30.3733 220.584 28.5338C222.299 26.6895 224.535 25.7696 227.301 25.7696C230.102 25.7696 232.363 26.6895 234.074 28.5338C235.766 30.3502 236.614 32.7798 236.614 35.8183C236.614 38.8657 235.761 41.2927 234.074 43.1115V43.1209L234.074 43.1162Z" fill="#DE5959"/>
<path d="M169.571 41.8529C168.082 40.3452 167.25 38.289 167.058 35.7165H187.773C188.718 35.7165 189.497 34.9605 189.511 34.0177C189.511 28.8472 188.183 24.8224 185.53 21.9083C182.849 18.9742 179.202 17.5079 174.605 17.5079C170.05 17.5079 166.385 19.0177 163.624 22.0377C160.882 25.1033 159.512 29.1026 159.512 34.0519C159.512 39.038 160.929 43.0444 163.748 46.0621C165.722 48.1617 168.14 49.5195 171.01 50.1512C172.213 50.4344 173.46 50.5846 174.721 50.5661C179.866 50.6724 184.343 50.7781 189.488 50.8843L189.497 50.1283C188.868 49.4437 188.552 48.6164 188.552 47.6573C188.552 46.7214 188.882 45.9169 189.525 45.2208L189.529 44.3056C185.472 44.2041 175.634 44.1074 175.242 44.1074C172.937 44.1074 171.042 43.3629 169.572 41.8578V41.8531L169.571 41.8529ZM168.566 27.4043C169.02 26.6938 169.557 26.0947 170.191 25.5921C170.83 25.0804 171.521 24.7022 172.296 24.435C173.066 24.1676 173.891 24.0337 174.776 24.0337C178.621 24.0337 181.056 25.9566 182.07 29.8108H167.54C167.778 28.9115 168.119 28.1096 168.566 27.3995L168.566 27.4043Z" fill="#DE5959"/>
</svg>
