<svg width="168" height="21" viewBox="0 0 168 21" fill="none" xmlns="http://www.w3.org/2000/svg">
<mask id="mask0_4_20" style="mask-type:luminance" maskUnits="userSpaceOnUse" x="0" y="0" width="168" height="21">
<path d="M168 0H0V21H168V0Z" fill="white"/>
</mask>
<g mask="url(#mask0_4_20)">
<path d="M32.6678 14.3787L25.4881 1.92467C23.9141 -0.671062 20.0757 -0.698677 18.5569 2.03512L11.0183 14.9862C9.60991 17.361 11.3496 20.3433 14.1663 20.3433H29.2712C32.1155 20.3433 34.2418 17.2781 32.6678 14.3787Z" fill="#3156AA"/>
<path d="M22.3124 15.3452L21.8706 14.572C21.4564 13.854 20.5451 12.3076 20.5451 12.3076L14.47 1.75903C12.896 -0.588175 9.16811 -0.781475 7.5941 2.17324L0.524876 14.4063C-0.938674 16.9744 0.801017 20.3157 3.97665 20.3434H18.9987H25.4052H29.216C25.3224 20.371 24.0798 18.3551 22.3124 15.3452Z" fill="#1972E2"/>
<path d="M22.3124 15.3451L21.8706 14.572C21.4564 13.854 20.5451 12.3076 20.5451 12.3076L16.6239 5.40405L10.9906 15.0138C9.58236 17.3886 11.322 20.3709 14.1387 20.3709H18.9711H25.3776H29.216C25.2948 20.3433 24.0797 18.3551 22.3124 15.3451Z" fill="url(#paint0_linear_4_20)"/>
<path d="M57.0403 19.2383V4.85132H68.9972V5.76259C68.9972 6.48055 68.4173 7.06045 67.6994 7.06045H60.0226V10.9264H67.6994V13.1356H60.0226V17.0015H67.6994C68.4173 17.0015 68.9972 17.5814 68.9972 18.2994V19.2107L57.0403 19.2383Z" fill="#151617"/>
<path d="M86.1733 4.85132H83.3566C82.8319 4.85132 82.3625 5.07223 82.0311 5.48644L78.6346 9.76664L75.238 5.51406C74.9067 5.09985 74.4372 4.87893 73.9126 4.87893H71.0959L76.812 12.0586L71.0959 19.2383H73.9126C74.4372 19.2383 74.9067 19.0174 75.238 18.6032L78.6346 14.3506L82.0587 18.6308C82.3901 19.0174 82.8596 19.2659 83.3842 19.2659H86.2009L80.4847 12.0862L86.1733 4.85132Z" fill="#151617"/>
<path d="M47.6792 17.7205L51.6004 10.8722V19.2117H54.5828V4.82471H52.7326C52.1527 4.82471 51.6004 5.12846 51.3243 5.65313L46.6299 14.2135L41.9355 5.65313C41.6593 5.12846 41.107 4.82471 40.5271 4.82471H38.677V19.2117H41.6593V10.8722L45.5805 17.7205H47.6792Z" fill="#151617"/>
<path d="M93.9605 19.4042C89.8184 19.4594 86.4495 16.2009 86.4219 12.0588C86.4219 9.79444 87.1122 7.91667 88.4101 6.61881C89.708 5.34856 91.5857 4.6582 93.8225 4.6582C96.4458 4.6582 98.5169 5.56947 100.008 7.33678L99.0692 8.13759C98.4893 8.63464 97.6332 8.66226 96.9981 8.19282C96.1697 7.55769 95.1203 7.25393 93.9329 7.25393C91.0058 7.25393 89.2661 9.02124 89.2661 12.0036C89.2661 15.0135 91.061 16.8637 93.9329 16.8637C95.1479 16.8637 96.1697 16.5323 96.9981 15.9248C97.6056 15.4553 98.4616 15.483 99.0692 15.98L100.008 16.7808C98.5169 18.5205 96.5287 19.4042 93.9605 19.4042Z" fill="#151617"/>
</g>
<defs>
<linearGradient id="paint0_linear_4_20" x1="8.98577" y1="10.6474" x2="26.4374" y2="17.0965" gradientUnits="userSpaceOnUse">
<stop stop-color="#264CA2" stop-opacity="0"/>
<stop offset="1" stop-color="#234588"/>
</linearGradient>
</defs>
</svg>
